<?xml version="1.0" encoding="UTF-8"?>
<svg width="100px" height="100px" viewBox="0 0 100 100" version="1.1" xmlns="http://www.w3.org/2000/svg" xmlns:xlink="http://www.w3.org/1999/xlink">
    <!-- Generator: Sketch 43.2 (39069) - http://www.bohemiancoding.com/sketch -->
    <title>heart_full</title>
    <desc>Created with Sketch.</desc>
    <defs></defs>
    <g id="Page-1" stroke="none" stroke-width="1" fill="none" fill-rule="evenodd">
        <path d="M93.3333333,13.3636364 C89,8.09454545 82.9166667,5.41818182 75,5 C66.9166667,5 60.9166667,8.51272727 56.6666667,13.3636364 C52.4166667,18.2145455 50.1666667,21.0581818 50,21.7272727 C49.8333333,21.0581818 47.6666667,18.2145455 43.3333333,13.3636364 C39,8.51272727 33.5833333,5 25,5 C17.0833333,5.41818182 10.9166667,8.17818182 6.66666667,13.3636364 C2.33333333,18.4654545 0.166666667,24.0690909 0,30.0909091 C0,34.44 0.75,42.8036364 5.58333333,52.4218182 C10.4166667,62.04 25.0833333,77.0109091 50,97 C74.8333333,77.0109091 89.75,62.1236364 94.5,52.4218182 C99.25,42.72 100,34.2727273 100,30.0909091 C99.8333333,24.0690909 97.6666667,18.4654545 93.3333333,13.1963636 L93.3333333,13.3636364 Z" id="Shape" fill="#FFFFFF" fill-rule="nonzero"></path>
    </g>
</svg>