<?xml version="1.0" encoding="UTF-8"?>
<svg width="65px" height="66px" viewBox="0 0 65 66" version="1.1" xmlns="http://www.w3.org/2000/svg" xmlns:xlink="http://www.w3.org/1999/xlink">
    <!-- Generator: Sketch 43.2 (39069) - http://www.bohemiancoding.com/sketch -->
    <title>Slice 1</title>
    <desc>Created with Sketch.</desc>
    <defs></defs>
    <g id="Page-1" stroke="none" stroke-width="1" fill="none" fill-rule="evenodd">
        <path d="M25.375,1.4375 C26.8750075,1.4375 27.9687466,1.91666188 28.65625,2.875 C29.3437534,3.83333813 29.6875,5.27082375 29.6875,7.1875 L29.6875,23.1875 C29.6875,25.1458431 29.3333369,26.6041619 28.625,27.5625 C27.9166631,28.5208381 26.8333406,29 25.375,29 C24.4166619,29 23.6145866,28.7812522 22.96875,28.34375 C22.3229134,27.9062478 21.7500025,27.2083381 21.25,26.25 C20.3749956,27.2083381 19.3229228,27.9479141 18.09375,28.46875 C16.8645772,28.9895859 15.5000075,29.25 14,29.25 C12.2499913,29.25 10.5729247,28.9062534 8.96875,28.21875 C7.36457531,27.5312466 5.96875594,26.5729228 4.78125,25.34375 C3.59374406,24.1145772 2.64583688,22.6458419 1.9375,20.9375 C1.22916312,19.2291581 0.875,17.3333437 0.875,15.25 C0.875,13.2083231 1.22916312,11.3333419 1.9375,9.625 C2.64583688,7.91665813 3.61457719,6.42708969 4.84375,5.15625 C6.07292281,3.88541031 7.49999188,2.89583688 9.125,2.1875 C10.7500081,1.47916312 12.4999906,1.125 14.375,1.125 C15.8333406,1.125 17.1249944,1.36458094 18.25,1.84375 C19.3750056,2.32291906 20.3749956,3.04166188 21.25,4 C21.7500025,3.1666625 22.3437466,2.53125219 23.03125,2.09375 C23.7187534,1.65624781 24.4999956,1.4375 25.375,1.4375 Z M15.3125,20.4375 C16.8541744,20.4375 18.1562447,19.9062553 19.21875,18.84375 C20.2812553,17.7812447 20.8125,16.5000075 20.8125,15 C20.8125,13.4583256 20.2812553,12.1562553 19.21875,11.09375 C18.1562447,10.0312447 16.8541744,9.5 15.3125,9.5 C13.8124925,9.5 12.5312553,10.0312447 11.46875,11.09375 C10.4062447,12.1562553 9.875,13.4583256 9.875,15 C9.875,16.5000075 10.4062447,17.7812447 11.46875,18.84375 C12.5312553,19.9062553 13.8124925,20.4375 15.3125,20.4375 Z M49.5,1 C51.6250106,1 53.5833244,1.35416312 55.375,2.0625 C57.1666756,2.77083688 58.7083269,3.74999375 60,5 C61.2916731,6.25000625 62.3020797,7.74999125 63.03125,9.5 C63.7604203,11.2500087 64.125,13.1666562 64.125,15.25 C64.125,17.2916769 63.7604203,19.1874913 63.03125,20.9375 C62.3020797,22.6875087 61.2916731,24.1874938 60,25.4375 C58.7083269,26.6875062 57.1666756,27.6666631 55.375,28.375 C53.5833244,29.0833369 51.6250106,29.4375 49.5,29.4375 C47.3749894,29.4375 45.4166756,29.0833369 43.625,28.375 C41.8333244,27.6666631 40.2812566,26.6875062 38.96875,25.4375 C37.6562434,24.1874938 36.6354203,22.6875087 35.90625,20.9375 C35.1770797,19.1874913 34.8125,17.2916769 34.8125,15.25 C34.8125,13.1666562 35.1770797,11.2500087 35.90625,9.5 C36.6354203,7.74999125 37.6562434,6.25000625 38.96875,5 C40.2812566,3.74999375 41.8333244,2.77083688 43.625,2.0625 C45.4166756,1.35416312 47.3749894,1 49.5,1 Z M49.5,20.875 C51.0416744,20.875 52.3437447,20.3437553 53.40625,19.28125 C54.4687553,18.2187447 55,16.9375075 55,15.4375 C55,13.8958256 54.4687553,12.5937553 53.40625,11.53125 C52.3437447,10.4687447 51.0416744,9.9375 49.5,9.9375 C47.9999925,9.9375 46.7187553,10.4687447 45.65625,11.53125 C44.5937447,12.5937553 44.0625,13.8958256 44.0625,15.4375 C44.0625,16.9375075 44.5937447,18.2187447 45.65625,19.28125 C46.7187553,20.3437553 47.9999925,20.875 49.5,20.875 Z M59.5,36.9375 L52.1875,36.9375 C51.6874975,36.9375 51.2395853,37.104165 50.84375,37.4375 C50.4479147,37.770835 50.2083338,38.1874975 50.125,38.6875 L50.125,38.75 C49.8333319,40.5416756 49.2604209,42.2291587 48.40625,43.8125 C47.5520791,45.3958413 46.4375069,46.8749931 45.0625,48.25 C43.2708244,50.0416756 41.3020941,51.3854122 39.15625,52.28125 C37.0104059,53.1770878 34.6666794,53.625 32.125,53.625 C29.5833206,53.625 27.2291775,53.1770878 25.0625,52.28125 C22.8958225,51.3854122 20.9166756,50.0416756 19.125,48.25 C17.7499931,46.8749931 16.6458375,45.3854247 15.8125,43.78125 C14.9791625,42.1770753 14.395835,40.4791756 14.0625,38.6875 C13.9791662,38.1874975 13.7395853,37.770835 13.34375,37.4375 C12.9479147,37.104165 12.5000025,36.9375 12,36.9375 L4.75,36.9375 C4.16666375,36.9375 3.66666875,37.1458313 3.25,37.5625 C2.83333125,37.9791687 2.625,38.4791637 2.625,39.0625 L2.625,39.25 C3.04166875,42.5416831 3.94790969,45.6041525 5.34375,48.4375 C6.73959031,51.2708475 8.64582125,53.9166544 11.0625,56.375 C12.5208406,57.7916738 14.0416587,59.0416612 15.625,60.125 C17.2083413,61.2083388 18.8854078,62.1145797 20.65625,62.84375 C22.4270922,63.5729203 24.2604072,64.1145816 26.15625,64.46875 C28.0520928,64.8229184 30.0416563,65 32.125,65 C34.1666769,65 36.1458238,64.8229184 38.0625,64.46875 C39.9791762,64.1145816 41.8124913,63.5729203 43.5625,62.84375 C45.3125087,62.1145797 46.9895753,61.2083388 48.59375,60.125 C50.1979247,59.0416612 51.7083262,57.7916738 53.125,56.375 C55.5416788,53.9166544 57.4583262,51.2708475 58.875,48.4375 C60.2916738,45.6041525 61.1874981,42.5416831 61.5625,39.25 L61.5625,39.0625 C61.5625,38.4791637 61.3645853,37.9791687 60.96875,37.5625 C60.5729147,37.1458313 60.0833363,36.9375 59.5,36.9375 Z" id="ao" fill="#FFFFFF"></path>
    </g>
</svg>