<?xml version="1.0" encoding="UTF-8"?>
<svg width="100px" height="100px" viewBox="0 0 100 100" version="1.1" xmlns="http://www.w3.org/2000/svg" xmlns:xlink="http://www.w3.org/1999/xlink">
    <!-- Generator: Sketch 43.2 (39069) - http://www.bohemiancoding.com/sketch -->
    <title>heart_empty</title>
    <desc>Created with Sketch.</desc>
    <defs></defs>
    <g id="Page-1" stroke="none" stroke-width="1" fill="none" fill-rule="evenodd">
        <path d="M93.3333333,12.3636364 L93.3333333,12.1963636 C97.6666667,17.4654545 99.8333333,23.0690909 100,29.0909091 C100,33.2727273 99.25,41.72 94.5,51.4218182 C89.75,61.1236364 74.8333333,76.0109091 50,96 C25.0833333,76.0109091 10.4166667,61.04 5.58333333,51.4218182 C0.75,41.8036364 0,33.44 0,29.0909091 C0.166666667,23.0690909 2.33333333,17.4654545 6.66666667,12.3636364 C10.9166667,7.17818182 17.0833333,4.41818182 25,4 C33.5833333,4 39,7.51272727 43.3333333,12.3636364 C47.6666667,17.2145455 49.8333333,20.0581818 50,20.7272727 C50.1666667,20.0581818 52.4166667,17.2145455 56.6666667,12.3636364 C60.9166667,7.51272727 66.9166667,4 75,4 C82.9166667,4.41818182 89,7.09454545 93.3333333,12.3636364 Z M72.9698795,14 C66.1818273,14 59.1673695,21.9781818 55.5983936,26.0909091 C52.0294177,30.2036364 50.1399598,33.7054545 50,34.2727273 C49.8600402,33.7054545 48.0405622,30.2036364 44.4016064,26.0909091 C40.7626506,21.9781818 34.2380522,14 27.0301205,14 C20.3820281,14.3545455 17.1794177,14.6945455 13.6104418,19.0909091 C9.97148594,23.4163636 9.13995984,28.1672727 9,33.2727273 C9,36.96 9.62981928,41.0509091 13.6886546,49.2054545 C17.74749,57.36 29.076004,68.0527273 50,85 C70.8540161,68.0527273 82.3924699,57.4309091 86.3813253,49.2054545 C90.3701807,40.98 91,36.8181818 91,33.2727273 C90.8600402,28.1672727 90.0285141,23.4163636 86.3895582,18.9490909 C82.7506024,14.6236364 79.6179719,14.3545455 72.9698795,14 Z" id="Combined-Shape" fill="#FFFFFF" fill-rule="nonzero"></path>
    </g>
</svg>