<?xml version="1.0" encoding="UTF-8"?>
<svg width="100px" height="100px" viewBox="0 0 100 100" version="1.1" xmlns="http://www.w3.org/2000/svg" xmlns:xlink="http://www.w3.org/1999/xlink">
    <!-- Generator: Sketch 43.2 (39069) - http://www.bohemiancoding.com/sketch -->
    <title>Slice 1</title>
    <desc>Created with Sketch.</desc>
    <defs></defs>
    <g id="Page-1" stroke="none" stroke-width="1" fill="none" fill-rule="evenodd">
        <path d="M34.0625,30.7375 L21.3875,8.77916667 L28.6041667,4.6125 L41.2916667,26.5833333 C38.6458333,27.575 36.2,28.9708333 34.0625,30.7375 Z M30.7333333,34.0708333 L8.775,21.3958333 L4.60833333,28.6125 L26.5833333,41.3 C27.5708333,38.6541667 28.9666667,36.2041667 30.7333333,34.0708333 L30.7333333,34.0708333 Z M25,50 C25,48.5791667 25.1458333,47.1958333 25.375,45.8375 L0,45.8375 L0,54.1666667 L25.375,54.1666667 C25.1458333,52.8083333 25,51.4208333 25,50 Z M72.2958333,38.7291667 L93.9958333,26.2 L92.6083333,23.7958333 L70.9166667,36.325 C71.4208333,37.0958333 71.875,37.9041667 72.2958333,38.7291667 Z M50,25 C51.4208333,25 52.8041667,25.1458333 54.1625,25.375 L54.1625,0 L45.8333333,0 L45.8333333,25.375 C47.1916667,25.1458333 48.5791667,25 50,25 Z M63.0833333,28.725 L75.6,7.04166667 L74.4,6.35 L61.9,28.0041667 L63.0833333,28.725 L63.0833333,28.725 Z M70.1041667,64.8166667 L91.9125,77.4083333 L94.6875,72.6 L72.9,60.0208333 C72.1458333,61.7291667 71.2,63.3291667 70.1041667,64.8166667 L70.1041667,64.8166667 Z M26.5875,58.7041667 L4.6125,71.3958333 L8.77916667,78.6125 L30.7375,65.9375 C28.9708333,63.8 27.575,61.3541667 26.5875,58.7041667 Z M74.8958333,47.9166667 L75,50 L74.8958333,52.0833333 L100,52.0833333 L100,47.9166667 L74.8958333,47.9166667 L74.8958333,47.9166667 Z M59.3666667,73.1708333 L71.9916667,95.0416667 L78,91.5708333 L65.3708333,69.6958333 C63.55,71.1125 61.5375,72.2916667 59.3666667,73.1708333 Z M50,75 C48.5791667,75 47.1916667,74.8541667 45.8333333,74.625 L45.8333333,100 L54.1625,100 L54.1625,74.625 C52.8041667,74.8541667 51.4208333,75 50,75 Z M34.0666667,69.2666667 L21.3916667,91.225 L28.6083333,95.3916667 L41.2958333,73.4166667 C38.65,72.4291667 36.2041667,71.0333333 34.0666667,69.2666667 L34.0666667,69.2666667 Z" id="Shape" fill="#FFFFFF" fill-rule="nonzero"></path>
    </g>
</svg>